<mxfile host="app.diagrams.net" agent="Mozilla/5.0 (Windows NT 10.0; Win64; x64) AppleWebKit/537.36 (KHTML, like Gecko) Chrome/139.0.0.0 Safari/537.36" version="28.2.5">
  <diagram name="第 1 页" id="ekFxRfGs7a9HzsL-sonY">
    <mxGraphModel dx="2492" dy="751" grid="1" gridSize="10" guides="1" tooltips="1" connect="1" arrows="1" fold="1" page="1" pageScale="1" pageWidth="827" pageHeight="1169" math="0" shadow="0">
      <root>
        <mxCell id="0" />
        <mxCell id="1" parent="0" />
        <mxCell id="zKiYXHPEGxiJC7v2Jcg3-3" value="" style="edgeStyle=orthogonalEdgeStyle;rounded=0;orthogonalLoop=1;jettySize=auto;html=1;" edge="1" parent="1" source="zKiYXHPEGxiJC7v2Jcg3-1" target="zKiYXHPEGxiJC7v2Jcg3-2">
          <mxGeometry relative="1" as="geometry" />
        </mxCell>
        <mxCell id="zKiYXHPEGxiJC7v2Jcg3-1" value="完工入库/自制件完工" style="rounded=0;whiteSpace=wrap;html=1;" vertex="1" parent="1">
          <mxGeometry x="350" y="30" width="120" height="60" as="geometry" />
        </mxCell>
        <mxCell id="zKiYXHPEGxiJC7v2Jcg3-5" value="" style="edgeStyle=orthogonalEdgeStyle;rounded=0;orthogonalLoop=1;jettySize=auto;html=1;" edge="1" parent="1" source="zKiYXHPEGxiJC7v2Jcg3-2" target="zKiYXHPEGxiJC7v2Jcg3-4">
          <mxGeometry relative="1" as="geometry" />
        </mxCell>
        <mxCell id="zKiYXHPEGxiJC7v2Jcg3-7" value="" style="edgeStyle=orthogonalEdgeStyle;rounded=0;orthogonalLoop=1;jettySize=auto;html=1;" edge="1" parent="1" source="zKiYXHPEGxiJC7v2Jcg3-2" target="zKiYXHPEGxiJC7v2Jcg3-6">
          <mxGeometry relative="1" as="geometry" />
        </mxCell>
        <mxCell id="zKiYXHPEGxiJC7v2Jcg3-2" value="校验参数" style="whiteSpace=wrap;html=1;rounded=0;" vertex="1" parent="1">
          <mxGeometry x="350" y="170" width="120" height="60" as="geometry" />
        </mxCell>
        <mxCell id="zKiYXHPEGxiJC7v2Jcg3-4" value="1.操作人&lt;div&gt;2.子库编码&lt;/div&gt;&lt;div&gt;3.货位编码&lt;/div&gt;" style="ellipse;whiteSpace=wrap;html=1;rounded=0;" vertex="1" parent="1">
          <mxGeometry x="570" y="160" width="80" height="80" as="geometry" />
        </mxCell>
        <mxCell id="zKiYXHPEGxiJC7v2Jcg3-9" value="" style="edgeStyle=orthogonalEdgeStyle;rounded=0;orthogonalLoop=1;jettySize=auto;html=1;" edge="1" parent="1" source="zKiYXHPEGxiJC7v2Jcg3-6" target="zKiYXHPEGxiJC7v2Jcg3-8">
          <mxGeometry relative="1" as="geometry" />
        </mxCell>
        <mxCell id="zKiYXHPEGxiJC7v2Jcg3-14" value="" style="edgeStyle=orthogonalEdgeStyle;rounded=0;orthogonalLoop=1;jettySize=auto;html=1;" edge="1" parent="1" source="zKiYXHPEGxiJC7v2Jcg3-6" target="zKiYXHPEGxiJC7v2Jcg3-13">
          <mxGeometry relative="1" as="geometry" />
        </mxCell>
        <mxCell id="zKiYXHPEGxiJC7v2Jcg3-6" value="校验子库权限" style="whiteSpace=wrap;html=1;rounded=0;" vertex="1" parent="1">
          <mxGeometry x="350" y="310" width="120" height="60" as="geometry" />
        </mxCell>
        <mxCell id="zKiYXHPEGxiJC7v2Jcg3-11" value="" style="edgeStyle=orthogonalEdgeStyle;rounded=0;orthogonalLoop=1;jettySize=auto;html=1;" edge="1" parent="1" source="zKiYXHPEGxiJC7v2Jcg3-8" target="zKiYXHPEGxiJC7v2Jcg3-10">
          <mxGeometry relative="1" as="geometry" />
        </mxCell>
        <mxCell id="zKiYXHPEGxiJC7v2Jcg3-12" value="无" style="edgeLabel;html=1;align=center;verticalAlign=middle;resizable=0;points=[];" vertex="1" connectable="0" parent="zKiYXHPEGxiJC7v2Jcg3-11">
          <mxGeometry x="-0.4" y="-1" relative="1" as="geometry">
            <mxPoint as="offset" />
          </mxGeometry>
        </mxCell>
        <mxCell id="zKiYXHPEGxiJC7v2Jcg3-8" value="默认校验用户是否有子库权限" style="whiteSpace=wrap;html=1;rounded=0;" vertex="1" parent="1">
          <mxGeometry x="550" y="310" width="120" height="60" as="geometry" />
        </mxCell>
        <mxCell id="zKiYXHPEGxiJC7v2Jcg3-10" value="报错提示" style="whiteSpace=wrap;html=1;rounded=0;" vertex="1" parent="1">
          <mxGeometry x="750" y="310" width="120" height="60" as="geometry" />
        </mxCell>
        <mxCell id="zKiYXHPEGxiJC7v2Jcg3-16" value="" style="edgeStyle=orthogonalEdgeStyle;rounded=0;orthogonalLoop=1;jettySize=auto;html=1;" edge="1" parent="1" source="zKiYXHPEGxiJC7v2Jcg3-13" target="zKiYXHPEGxiJC7v2Jcg3-15">
          <mxGeometry relative="1" as="geometry" />
        </mxCell>
        <mxCell id="zKiYXHPEGxiJC7v2Jcg3-13" value="插入事务头表" style="whiteSpace=wrap;html=1;rounded=0;" vertex="1" parent="1">
          <mxGeometry x="350" y="450" width="120" height="60" as="geometry" />
        </mxCell>
        <mxCell id="zKiYXHPEGxiJC7v2Jcg3-20" value="" style="edgeStyle=orthogonalEdgeStyle;rounded=0;orthogonalLoop=1;jettySize=auto;html=1;" edge="1" parent="1" source="zKiYXHPEGxiJC7v2Jcg3-15" target="zKiYXHPEGxiJC7v2Jcg3-19">
          <mxGeometry relative="1" as="geometry" />
        </mxCell>
        <mxCell id="zKiYXHPEGxiJC7v2Jcg3-21" value="存在" style="edgeLabel;html=1;align=center;verticalAlign=middle;resizable=0;points=[];" vertex="1" connectable="0" parent="zKiYXHPEGxiJC7v2Jcg3-20">
          <mxGeometry x="0.225" relative="1" as="geometry">
            <mxPoint x="11" as="offset" />
          </mxGeometry>
        </mxCell>
        <mxCell id="zKiYXHPEGxiJC7v2Jcg3-23" value="" style="edgeStyle=orthogonalEdgeStyle;rounded=0;orthogonalLoop=1;jettySize=auto;html=1;" edge="1" parent="1" source="zKiYXHPEGxiJC7v2Jcg3-15" target="zKiYXHPEGxiJC7v2Jcg3-22">
          <mxGeometry relative="1" as="geometry" />
        </mxCell>
        <mxCell id="zKiYXHPEGxiJC7v2Jcg3-24" value="不存在" style="edgeLabel;html=1;align=center;verticalAlign=middle;resizable=0;points=[];" vertex="1" connectable="0" parent="zKiYXHPEGxiJC7v2Jcg3-23">
          <mxGeometry x="-0.15" relative="1" as="geometry">
            <mxPoint as="offset" />
          </mxGeometry>
        </mxCell>
        <mxCell id="zKiYXHPEGxiJC7v2Jcg3-15" value="查事务明细表（根据单号+工单号）" style="whiteSpace=wrap;html=1;rounded=0;" vertex="1" parent="1">
          <mxGeometry x="350" y="590" width="120" height="60" as="geometry" />
        </mxCell>
        <mxCell id="zKiYXHPEGxiJC7v2Jcg3-18" value="对象是工单表，物料是装配件编码" style="text;html=1;align=center;verticalAlign=middle;whiteSpace=wrap;rounded=0;" vertex="1" parent="1">
          <mxGeometry x="490" y="605" width="60" height="30" as="geometry" />
        </mxCell>
        <mxCell id="zKiYXHPEGxiJC7v2Jcg3-27" style="edgeStyle=orthogonalEdgeStyle;rounded=0;orthogonalLoop=1;jettySize=auto;html=1;entryX=0.5;entryY=0;entryDx=0;entryDy=0;" edge="1" parent="1" source="zKiYXHPEGxiJC7v2Jcg3-19" target="zKiYXHPEGxiJC7v2Jcg3-25">
          <mxGeometry relative="1" as="geometry">
            <Array as="points">
              <mxPoint x="210" y="760" />
              <mxPoint x="280" y="760" />
            </Array>
          </mxGeometry>
        </mxCell>
        <mxCell id="zKiYXHPEGxiJC7v2Jcg3-19" value="更新事务明细表数量&lt;div&gt;数量=数量+完工数量&lt;/div&gt;" style="whiteSpace=wrap;html=1;rounded=0;" vertex="1" parent="1">
          <mxGeometry x="150" y="590" width="120" height="60" as="geometry" />
        </mxCell>
        <mxCell id="zKiYXHPEGxiJC7v2Jcg3-26" value="" style="edgeStyle=orthogonalEdgeStyle;rounded=0;orthogonalLoop=1;jettySize=auto;html=1;" edge="1" parent="1" source="zKiYXHPEGxiJC7v2Jcg3-22" target="zKiYXHPEGxiJC7v2Jcg3-25">
          <mxGeometry relative="1" as="geometry" />
        </mxCell>
        <mxCell id="zKiYXHPEGxiJC7v2Jcg3-22" value="插入事务明细表&lt;div&gt;数量=完工数量&lt;/div&gt;" style="whiteSpace=wrap;html=1;rounded=0;" vertex="1" parent="1">
          <mxGeometry x="350" y="730" width="120" height="60" as="geometry" />
        </mxCell>
        <mxCell id="zKiYXHPEGxiJC7v2Jcg3-29" value="" style="edgeStyle=orthogonalEdgeStyle;rounded=0;orthogonalLoop=1;jettySize=auto;html=1;" edge="1" parent="1" source="zKiYXHPEGxiJC7v2Jcg3-25" target="zKiYXHPEGxiJC7v2Jcg3-28">
          <mxGeometry relative="1" as="geometry" />
        </mxCell>
        <mxCell id="zKiYXHPEGxiJC7v2Jcg3-25" value="查询工单bom表" style="whiteSpace=wrap;html=1;rounded=0;" vertex="1" parent="1">
          <mxGeometry x="220" y="850" width="120" height="60" as="geometry" />
        </mxCell>
        <mxCell id="zKiYXHPEGxiJC7v2Jcg3-31" value="" style="edgeStyle=orthogonalEdgeStyle;rounded=0;orthogonalLoop=1;jettySize=auto;html=1;" edge="1" parent="1" source="zKiYXHPEGxiJC7v2Jcg3-28" target="zKiYXHPEGxiJC7v2Jcg3-30">
          <mxGeometry relative="1" as="geometry" />
        </mxCell>
        <mxCell id="zKiYXHPEGxiJC7v2Jcg3-32" value="不存在" style="edgeLabel;html=1;align=center;verticalAlign=middle;resizable=0;points=[];" vertex="1" connectable="0" parent="zKiYXHPEGxiJC7v2Jcg3-31">
          <mxGeometry x="-0.075" relative="1" as="geometry">
            <mxPoint as="offset" />
          </mxGeometry>
        </mxCell>
        <mxCell id="zKiYXHPEGxiJC7v2Jcg3-34" value="" style="edgeStyle=orthogonalEdgeStyle;rounded=0;orthogonalLoop=1;jettySize=auto;html=1;" edge="1" parent="1" source="zKiYXHPEGxiJC7v2Jcg3-28" target="zKiYXHPEGxiJC7v2Jcg3-33">
          <mxGeometry relative="1" as="geometry" />
        </mxCell>
        <mxCell id="zKiYXHPEGxiJC7v2Jcg3-35" value="存在" style="edgeLabel;html=1;align=center;verticalAlign=middle;resizable=0;points=[];" vertex="1" connectable="0" parent="zKiYXHPEGxiJC7v2Jcg3-34">
          <mxGeometry x="-0.05" y="-1" relative="1" as="geometry">
            <mxPoint as="offset" />
          </mxGeometry>
        </mxCell>
        <mxCell id="zKiYXHPEGxiJC7v2Jcg3-28" value="查自动发料表&lt;div&gt;（根据单号+工单号+工单bom物料查）&lt;/div&gt;" style="whiteSpace=wrap;html=1;rounded=0;" vertex="1" parent="1">
          <mxGeometry x="220" y="990" width="120" height="60" as="geometry" />
        </mxCell>
        <mxCell id="zKiYXHPEGxiJC7v2Jcg3-37" value="" style="edgeStyle=orthogonalEdgeStyle;rounded=0;orthogonalLoop=1;jettySize=auto;html=1;" edge="1" parent="1" source="zKiYXHPEGxiJC7v2Jcg3-30" target="zKiYXHPEGxiJC7v2Jcg3-36">
          <mxGeometry relative="1" as="geometry" />
        </mxCell>
        <mxCell id="zKiYXHPEGxiJC7v2Jcg3-30" value="插入自动发料表&lt;div&gt;数量=完工数*单机定额&lt;/div&gt;" style="whiteSpace=wrap;html=1;rounded=0;" vertex="1" parent="1">
          <mxGeometry x="220" y="1130" width="120" height="60" as="geometry" />
        </mxCell>
        <mxCell id="zKiYXHPEGxiJC7v2Jcg3-38" style="edgeStyle=orthogonalEdgeStyle;rounded=0;orthogonalLoop=1;jettySize=auto;html=1;entryX=0;entryY=0.5;entryDx=0;entryDy=0;" edge="1" parent="1" source="zKiYXHPEGxiJC7v2Jcg3-33" target="zKiYXHPEGxiJC7v2Jcg3-36">
          <mxGeometry relative="1" as="geometry">
            <Array as="points">
              <mxPoint x="80" y="1300" />
            </Array>
          </mxGeometry>
        </mxCell>
        <mxCell id="zKiYXHPEGxiJC7v2Jcg3-33" value="更新自动发料表&lt;div&gt;数量=原数量+(完工数*单机定额)&lt;/div&gt;" style="whiteSpace=wrap;html=1;rounded=0;" vertex="1" parent="1">
          <mxGeometry x="20" y="990" width="120" height="60" as="geometry" />
        </mxCell>
        <mxCell id="zKiYXHPEGxiJC7v2Jcg3-40" value="" style="edgeStyle=orthogonalEdgeStyle;rounded=0;orthogonalLoop=1;jettySize=auto;html=1;" edge="1" parent="1" source="zKiYXHPEGxiJC7v2Jcg3-36" target="zKiYXHPEGxiJC7v2Jcg3-39">
          <mxGeometry relative="1" as="geometry" />
        </mxCell>
        <mxCell id="zKiYXHPEGxiJC7v2Jcg3-41" value="不存在" style="edgeLabel;html=1;align=center;verticalAlign=middle;resizable=0;points=[];" vertex="1" connectable="0" parent="zKiYXHPEGxiJC7v2Jcg3-40">
          <mxGeometry x="-0.225" y="2" relative="1" as="geometry">
            <mxPoint as="offset" />
          </mxGeometry>
        </mxCell>
        <mxCell id="zKiYXHPEGxiJC7v2Jcg3-36" value="查事务标签明细表&lt;div&gt;（根据标签号）&lt;/div&gt;" style="whiteSpace=wrap;html=1;rounded=0;" vertex="1" parent="1">
          <mxGeometry x="220" y="1270" width="120" height="60" as="geometry" />
        </mxCell>
        <mxCell id="zKiYXHPEGxiJC7v2Jcg3-43" value="" style="edgeStyle=orthogonalEdgeStyle;rounded=0;orthogonalLoop=1;jettySize=auto;html=1;" edge="1" parent="1" source="zKiYXHPEGxiJC7v2Jcg3-39" target="zKiYXHPEGxiJC7v2Jcg3-42">
          <mxGeometry relative="1" as="geometry" />
        </mxCell>
        <mxCell id="zKiYXHPEGxiJC7v2Jcg3-39" value="插入事务标签明细表" style="whiteSpace=wrap;html=1;rounded=0;" vertex="1" parent="1">
          <mxGeometry x="220" y="1410" width="120" height="60" as="geometry" />
        </mxCell>
        <mxCell id="zKiYXHPEGxiJC7v2Jcg3-46" value="" style="edgeStyle=orthogonalEdgeStyle;rounded=0;orthogonalLoop=1;jettySize=auto;html=1;" edge="1" parent="1" source="zKiYXHPEGxiJC7v2Jcg3-42" target="zKiYXHPEGxiJC7v2Jcg3-45">
          <mxGeometry relative="1" as="geometry" />
        </mxCell>
        <mxCell id="zKiYXHPEGxiJC7v2Jcg3-42" value="查标签表" style="whiteSpace=wrap;html=1;rounded=0;" vertex="1" parent="1">
          <mxGeometry x="220" y="1550" width="120" height="60" as="geometry" />
        </mxCell>
        <mxCell id="zKiYXHPEGxiJC7v2Jcg3-48" value="" style="edgeStyle=orthogonalEdgeStyle;rounded=0;orthogonalLoop=1;jettySize=auto;html=1;" edge="1" parent="1" source="zKiYXHPEGxiJC7v2Jcg3-45" target="zKiYXHPEGxiJC7v2Jcg3-47">
          <mxGeometry relative="1" as="geometry" />
        </mxCell>
        <mxCell id="zKiYXHPEGxiJC7v2Jcg3-49" value="存在" style="edgeLabel;html=1;align=center;verticalAlign=middle;resizable=0;points=[];" vertex="1" connectable="0" parent="zKiYXHPEGxiJC7v2Jcg3-48">
          <mxGeometry x="0.075" y="-3" relative="1" as="geometry">
            <mxPoint as="offset" />
          </mxGeometry>
        </mxCell>
        <mxCell id="zKiYXHPEGxiJC7v2Jcg3-51" value="" style="edgeStyle=orthogonalEdgeStyle;rounded=0;orthogonalLoop=1;jettySize=auto;html=1;" edge="1" parent="1" source="zKiYXHPEGxiJC7v2Jcg3-45" target="zKiYXHPEGxiJC7v2Jcg3-50">
          <mxGeometry relative="1" as="geometry" />
        </mxCell>
        <mxCell id="zKiYXHPEGxiJC7v2Jcg3-52" value="不存在" style="edgeLabel;html=1;align=center;verticalAlign=middle;resizable=0;points=[];" vertex="1" connectable="0" parent="zKiYXHPEGxiJC7v2Jcg3-51">
          <mxGeometry x="0.125" relative="1" as="geometry">
            <mxPoint as="offset" />
          </mxGeometry>
        </mxCell>
        <mxCell id="zKiYXHPEGxiJC7v2Jcg3-45" value="查工单扩展表&lt;div&gt;（根据self_work_order_name查）&lt;/div&gt;" style="whiteSpace=wrap;html=1;rounded=0;" vertex="1" parent="1">
          <mxGeometry x="220" y="1690" width="120" height="60" as="geometry" />
        </mxCell>
        <mxCell id="zKiYXHPEGxiJC7v2Jcg3-54" value="" style="edgeStyle=orthogonalEdgeStyle;rounded=0;orthogonalLoop=1;jettySize=auto;html=1;" edge="1" parent="1" source="zKiYXHPEGxiJC7v2Jcg3-47" target="zKiYXHPEGxiJC7v2Jcg3-53">
          <mxGeometry relative="1" as="geometry" />
        </mxCell>
        <mxCell id="zKiYXHPEGxiJC7v2Jcg3-47" value="更新工单扩展表&lt;div&gt;完工数量=原始完工数量+入参完工数量&lt;/div&gt;&lt;div&gt;入库数量=原始入库数量+入参完工数量&lt;/div&gt;" style="whiteSpace=wrap;html=1;rounded=0;" vertex="1" parent="1">
          <mxGeometry x="220" y="1830" width="120" height="60" as="geometry" />
        </mxCell>
        <mxCell id="zKiYXHPEGxiJC7v2Jcg3-55" style="edgeStyle=orthogonalEdgeStyle;rounded=0;orthogonalLoop=1;jettySize=auto;html=1;entryX=0;entryY=0.75;entryDx=0;entryDy=0;" edge="1" parent="1" source="zKiYXHPEGxiJC7v2Jcg3-50" target="zKiYXHPEGxiJC7v2Jcg3-53">
          <mxGeometry relative="1" as="geometry">
            <Array as="points">
              <mxPoint x="80" y="2015" />
            </Array>
          </mxGeometry>
        </mxCell>
        <mxCell id="zKiYXHPEGxiJC7v2Jcg3-50" value="插入工单扩展表&lt;div&gt;完工数量=入参完工数量&lt;/div&gt;&lt;div&gt;入库数量=入参完工数量&lt;/div&gt;" style="whiteSpace=wrap;html=1;rounded=0;" vertex="1" parent="1">
          <mxGeometry x="20" y="1690" width="120" height="60" as="geometry" />
        </mxCell>
        <mxCell id="zKiYXHPEGxiJC7v2Jcg3-57" value="" style="edgeStyle=orthogonalEdgeStyle;rounded=0;orthogonalLoop=1;jettySize=auto;html=1;" edge="1" parent="1" source="zKiYXHPEGxiJC7v2Jcg3-53" target="zKiYXHPEGxiJC7v2Jcg3-56">
          <mxGeometry relative="1" as="geometry" />
        </mxCell>
        <mxCell id="zKiYXHPEGxiJC7v2Jcg3-53" value="增加现有量&lt;div&gt;交易方向是入库&lt;/div&gt;" style="whiteSpace=wrap;html=1;rounded=0;" vertex="1" parent="1">
          <mxGeometry x="220" y="1970" width="120" height="60" as="geometry" />
        </mxCell>
        <mxCell id="zKiYXHPEGxiJC7v2Jcg3-59" value="" style="edgeStyle=orthogonalEdgeStyle;rounded=0;orthogonalLoop=1;jettySize=auto;html=1;" edge="1" parent="1" source="zKiYXHPEGxiJC7v2Jcg3-56" target="zKiYXHPEGxiJC7v2Jcg3-58">
          <mxGeometry relative="1" as="geometry" />
        </mxCell>
        <mxCell id="zKiYXHPEGxiJC7v2Jcg3-60" value="是" style="edgeLabel;html=1;align=center;verticalAlign=middle;resizable=0;points=[];" vertex="1" connectable="0" parent="zKiYXHPEGxiJC7v2Jcg3-59">
          <mxGeometry x="-0.075" y="-3" relative="1" as="geometry">
            <mxPoint as="offset" />
          </mxGeometry>
        </mxCell>
        <mxCell id="zKiYXHPEGxiJC7v2Jcg3-56" value="标签类型是DISTRIBUTIONCARD" style="whiteSpace=wrap;html=1;rounded=0;" vertex="1" parent="1">
          <mxGeometry x="220" y="2110" width="120" height="60" as="geometry" />
        </mxCell>
        <mxCell id="zKiYXHPEGxiJC7v2Jcg3-58" value="更新标签状态为入库&lt;div&gt;货位、数量、入库时间&lt;/div&gt;" style="whiteSpace=wrap;html=1;rounded=0;" vertex="1" parent="1">
          <mxGeometry x="220" y="2250" width="120" height="60" as="geometry" />
        </mxCell>
        <mxCell id="zKiYXHPEGxiJC7v2Jcg3-61" value="1.根据标的自制件工单号、标签数量、工单的装配件编码进行完工入库。示例代码：&lt;span style=&quot;color: rgb(255, 198, 109); font-family: &amp;quot;JetBrains Mono&amp;quot;, monospace; font-size: 9.8pt; background-color: rgb(43, 43, 43);&quot;&gt;checkDataAndWhetherStockIn&lt;/span&gt;" style="text;html=1;align=center;verticalAlign=middle;whiteSpace=wrap;rounded=0;" vertex="1" parent="1">
          <mxGeometry x="-420" y="160" width="650" height="30" as="geometry" />
        </mxCell>
      </root>
    </mxGraphModel>
  </diagram>
</mxfile>
